# xmcd
#
# Track frame offsets:
#	150
#	12574
#	26683
#	37854
#	51400
#	67226
#	80954
#	94909
#	106943
#	117645
#
# Disc length: 1776 seconds
#
# Revision: 0
# Processed by: cddbd v1.5.2PL0 Copyright (c) Steve Scherf et al.
# Submitted via: dBpowerAMP V4.0
#
DISCID=8f06ee0a
DTITLE=Three-Chord Justice - Undercover Justice
DYEAR=1900
DGENRE=Country
TTITLE0=Act Nacturally
TTITLE1=You Ain't Woman Enough
TTITLE2=Big River
TTITLE3=You Never Can Tell
TTITLE4=I Still Miss Someone
TTITLE5=Six Days On The Road
TTITLE6=Only The Lonely
TTITLE7=Drytown
TTITLE8=You're Still On My Mind
TTITLE9=Two More Bottles Of Wine
EXTD=
EXTT0=
EXTT1=
EXTT2=
EXTT3=
EXTT4=
EXTT5=
EXTT6=
EXTT7=
EXTT8=
EXTT9=
PLAYORDER=
